<svg xmlns="http://www.w3.org/2000/svg" viewBox="0 0 48 48" width="48" height="48">
  <path fill="#FF9A9E" d="M40,20h-4.1c-0.5-3.7-2.4-7-5.2-9.4l2.9-2.9l-2.8-2.8l-3.4,3.4c-2.3-1-4.9-1.6-7.5-1.6s-5.2,0.6-7.5,1.6L8.3,4.8L5.5,7.7l2.9,2.9C5.6,13,3.7,16.3,3.1,20H-1v4h4.1c0.5,3.7,2.4,7,5.2,9.4l-2.9,2.9l2.8,2.8l3.4-3.4c2.3,1,4.9,1.6,7.5,1.6s5.2-0.6,7.5-1.6l3.4,3.4l2.8-2.8l-2.9-2.9c2.8-2.4,4.7-5.7,5.2-9.4H40V20z M24,33c-4.9,0-9-3.6-9.8-8.4L14,24.5l0.2-0.1C15,19.6,19.1,16,24,16s9,3.6,9.8,8.4L34,24.5l-0.2,0.1C33,29.4,28.9,33,24,33z"/>
  <circle cx="24" cy="24" r="3" fill="#FF9A9E"/>
</svg>
